<?xml version="1.0" encoding="UTF-8" standalone="no"?> <svg xmlns="http://www.w3.org/2000/svg" viewBox="0 0 512 512"><title>armchair</title><g id="armchair"><polygon points="43 315 43 326 82 348 82 337 43 315" style="fill:#609aa3"/><polygon points="278 217 254 204 195 220 222 234 108 297 95 291 87.49 295.1 121 314 121 325 138 315 119 303 278 217" style="opacity:0.2"/><polygon points="121 314 87.49 295.1 82 292 43 315 82 337 121 314" style="fill:#85bdc4"/><polygon points="82 337 82 348 121 325 121 314 82 337" style="fill:#344d5c"/><polygon points="41 36 83 11 123 38 82 61 41 36" style="fill:#ff5542"/><polygon points="41 36 17 107.28 73 140 82 144.66 82 61 41 36" style="fill:#cc3a2f"/><polygon points="123 38 148 106 91 139 82 144.66 82 61 123 38" style="fill:#9e2319"/><polygon points="54 36 83 19 111 37 83 53 54 36" style="fill:#9e2319"/><polygon points="83 53 83 19 111 37 83 53" style="fill:#cc3a2f"/><polygon points="73 140 73 312.67 82 318 82 144.66 73 140" style="fill:#ffe571"/><polygon points="82 144.66 82 318 91 313 91 139 82 144.66" style="fill:#d67240"/><polygon points="291 501 360 461 377 471 472 416 451 404 512 371 356 281 206 369 342 451 291 481 291 501" style="opacity:0.2"/><polygon points="226 251 128 305 146 316 288 237 270 228 226 251" style="fill:#ffe571"/><polygon points="128 305 128 315 146 326 146 316 128 305" style="fill:#ffb230"/><polygon points="146 326 288 247 288 237 146 316 146 326" style="fill:#d67240"/><polygon points="216 307 226 251 245 149 378 222 349 380 216 307" style="fill:#cc3a2f"/><polygon points="245 149 290 124 423 198 378 222 245 149" style="fill:#ff5542"/><polygon points="423 198 392 355 349 380 378 222 423 198" style="fill:#9e2319"/><polygon points="216 307 120 363 251 437 349 380 216 307" style="fill:#ff5542"/><polygon points="120 363 112 400 245 475 251 437 120 363" style="fill:#cc3a2f"/><polygon points="245 475 254 489 264 483 291 466.91 291 447 333 423 340 419 357 408 357 427 384 411 392 355 251 437 245 475" style="fill:#9e2319"/><polygon points="112 400 123 417 129 420 145 429 159 437 247 485 254 489 245 475 112 400" style="fill:#9e2319"/><polygon points="357 427 340 419 357 408 357 427" style="fill:#cc3a2f"/><polygon points="264 483 276 511 291 501 291 466.91 264 483" style="fill:#d67240"/><polygon points="264 483 254 489 247 485 255 498 276 511 264 483" style="fill:#ffb230"/><polygon points="145 429 151 442.09 159 437 145 429" style="fill:#d67240"/><polygon points="145 429 129 420 123 417 130 429.09 151 442.09 145 429" style="fill:#ffb230"/><polygon points="384 411 378 450 360 461 357 427 384 411" style="fill:#d67240"/><polygon points="360 461 342 451 333 423 340 419 357 427 360 461" style="fill:#ffb230"/><polygon points="358 329 263 382 281 393 423 314 405 304 358 329" style="fill:#ffe571"/><polygon points="263 382 263 392 281 403 281 393 263 382" style="fill:#ffb230"/><polygon points="281 403 423 324 423 314 281 393 281 403" style="fill:#d67240"/></g></svg>